<?xml version="1.0" encoding="utf-8"?>
<!-- Generator: Adobe Illustrator 26.5.0, SVG Export Plug-In . SVG Version: 6.00 Build 0)  -->
<svg version="1.1" id="Laag_1" xmlns="http://www.w3.org/2000/svg" xmlns:xlink="http://www.w3.org/1999/xlink" x="0px" y="0px"
	 viewBox="0 0 692.79 321.12" style="enable-background:new 0 0 692.79 321.12;" xml:space="preserve">
<style type="text/css">
	.st0{fill:#FFFFFF;}
</style>
<path d="M684.79,321.12H8c-4.4,0-8-3.6-8-8L0,8.19c0-4.4,3.6-8,8-8l676.79,0c4.4,0,8,3.6,8,8v304.93
	C692.79,317.52,689.19,321.12,684.79,321.12z"/>
<path class="st0" d="M96.57,220.4c0.25-2.83,1.49-6.09,5.2-11.09c21.06-28.51,65.15-82.7,101.07-117.74
	c-0.83,0.81-6.95,0.4-8.3,0.46c-18.1,0.92-36.51,1.84-54.66,1.83c-8.19-0.01-16.99-0.87-23.98-5.49
	c-5.36-3.55-11.63-11.48-9.91-18.4c1.64-6.58,9.23-7.18,13.46-2.54c-1.59-1.74-5.36-2.52-7.59-2.18c-1.38,0.21-2.76,1.11-3.08,2.46
	c-0.21,0.89,0.06,1.83,0.4,2.68c3.06,7.63,10.44,9.97,18.03,10.66c22.03,2.01,44.02,1.2,65.9-1.61c8.88-1.14,17.81-2.34,26.51-4.25
	c2.05-0.45,11.07-1.74,11.21-4.5c-0.25,5.01,0.49,11.97-4.22,16.32c-22.78,21.55-67.62,71.38-99.33,115.78
	c29.8-1.41,59.75-1.83,89.59-2.12c7.21-0.07,16.06-0.54,21.57,4.34c7.35,6.52,7.16,21.01,5.99,29.38
	c-1.12,7.99-4.91,17.1-13.98,20.45c-1.89,0.7-3.91,1.17-5.97,1.13c-3.09-0.06-6.3-1.48-7.5-3.98c-0.9-1.88-0.56-4.08,0.44-5.87
	c1.16-2.07,3.14-3.7,5.26-5.08c3.14-2.04,6.71-3.65,10.55-4.24c-2.23,1.08-4.38,2.29-6.42,3.62c-1.94,1.26-4.01,2.59-5.37,4.37
	c-0.7,0.92-1.22,1.96-1.48,3.05c-0.23,0.97-0.46,2.26,0.1,3.17c0.44,0.71,1.31,1.16,2.21,1.34c2.95,0.61,6.08-0.62,8.29-2.28
	c7.46-5.61,9.23-18.62,1.05-24.4c-5.43-3.83-13.58-2.78-20.05-2.81c-8.05-0.04-16.11-0.05-24.16-0.05
	c-16.11,0-32.21,0.07-48.32,0.12c-3.59,0.01-42.73-0.32-42.76,0.1L96.57,220.4z"/>
<path class="st0" d="M230.06,195.69c-5.61-0.42-7.85-0.71-10.89-0.71h-5.28c-3.04,0-5.29,0.29-10.89,0.71l-2.24,0.14l0.16-1.98
	c0.64,0,0.96,0,1.76-0.14c7.85-0.7,8.81-2.68,8.81-8.33v-42.95c0-5.65-0.96-7.63-8.81-8.33c-0.8-0.14-1.12-0.14-1.76-0.14
	l-0.16-1.97l2.24,0.14c5.6,0.43,7.84,0.71,10.89,0.71h5.28c3.04,0,5.29-0.28,10.89-0.71l2.24-0.14l-0.16,1.97
	c-0.64,0-0.96,0-1.76,0.14c-7.85,0.71-8.81,2.69-8.81,8.33v42.95c0,5.65,0.96,7.63,8.81,8.33c0.8,0.14,1.12,0.14,1.76,0.14
	l0.16,1.98L230.06,195.69z M217.01,126.38h-0.96c-1.11-5.15-0.41-10.24-7.68-10.36v-1.29c4.84-1.6,5.45,0.14,7.68-10.36h0.96
	c1.13,10.5,4.39,8.51,7.68,10.36v1.29C217.46,116.95,218.38,121.93,217.01,126.38z"/>
<path class="st0" d="M546.82,195.69c-5.61-0.42-7.85-0.71-10.89-0.71h-5.28c-3.04,0-5.29,0.29-10.89,0.71l-2.24,0.14l0.16-1.98
	c0.64,0,0.96,0,1.76-0.14c7.85-0.7,8.81-2.68,8.81-8.33v-42.95c0-5.65-0.96-7.63-8.81-8.33c-0.8-0.14-1.12-0.14-1.76-0.14
	l-0.16-1.97l2.24,0.14c5.6,0.43,7.84,0.71,10.89,0.71h5.28c3.04,0,5.29-0.28,10.89-0.71l2.24-0.14l-0.16,1.97
	c-0.64,0-0.96,0-1.76,0.14c-7.85,0.71-8.81,2.69-8.81,8.33v42.95c0,5.65,0.96,7.63,8.81,8.33c0.8,0.14,1.12,0.14,1.76,0.14
	l0.16,1.98L546.82,195.69z M533.77,126.38h-0.96c-1.11-5.15-0.41-10.24-7.68-10.36v-1.29c4.84-1.6,5.45,0.14,7.68-10.36h0.96
	c1.13,10.5,4.39,8.51,7.68,10.36v1.29C534.22,116.95,535.15,121.93,533.77,126.38z"/>
<path class="st0" d="M243.84,180.25v-32.91c0-10.34-1.23-13.59-6.62-13.59h-1.96v-1.25c18.99,0,26.21-6.23,28.17-18.57h0.73
	c-0.37,3.61-1.35,10.72-1.35,18.57h13.1v1.25h-13.1v36.9c0,12.34-1.84,23.18,3.92,23.18c4.29,0,7.35-4.86,7.35-11.22
	c0-2.99-0.61-6.36-2.33-9.6c0.61-0.75,1.83-0.87,2.33-0.12c0.98,3.49,1.47,6.6,1.47,9.47c0,8.11-4.04,13.46-13.84,13.46
	C250.45,195.83,243.84,192.09,243.84,180.25z"/>
<path class="st0" d="M280.67,178.98c0-13.23,12.9-17.97,25-17.97c3.51,0,6.9,0.37,9.84,1.12c0.45-2.75,1.36-8.61,1.36-14.48
	c0-8.24-1.81-16.48-8.94-16.48c-6.33,0-8.37,3.37-8.37,7.24c0,4.12,2.26,8.86,3.85,11.11c-3.05,3.12-6.9,4.74-10.41,4.74
	c-5.09,0-9.28-3.37-9.28-9.61c0-9.11,8.26-14.73,27.05-14.73c15.84,0,23.87,8.12,23.87,23.47c0,5.99-1.58,19.35-1.58,28.59
	c0,5.86,0.57,8.99,2.49,8.99c2.26,0,3.62-4.24,3.62-8.86c0-2.37-0.34-4.87-1.25-6.99c0.23-0.75,1.36-1.12,1.93-0.38
	c0.45,1.5,0.79,3.62,0.79,5.99c0,6.62-2.72,14.73-12.45,14.73c-7.24,0-12.9-4.75-11.88-16.48h-0.68c-1.13,10.74-6,16.85-17.09,16.85
	C288.14,195.83,280.67,189.84,280.67,178.98z M315.41,163.75c-2.6-0.75-4.75-1.12-6.56-1.12c-7.58,0-8.94,6.11-8.94,15.48
	c0,7.99,0.9,13.98,5.77,13.98C312.24,192.09,315.41,183.1,315.41,163.75z"/>
<path class="st0" d="M439.35,64.4c12.63,0,26.63,2,37.92,8.6c3.05,1.78,5.99,4.04,8.14,7.06c1.98,2.79,4.54,8.38,2.42,11.66
	c-0.88,1.37-2.25,2.24-3.61,2.97c-3.16,1.7-6.54,2.87-9.89,4.04c-4.05,1.41-8.16,2.83-12.41,2.99c-2.27,0.09-4.66-0.23-6.54-1.64
	c-4.01-3.03-2.36-8.92-0.91-13c0.19,2.69,0.42,5.48,1.6,7.9c0.8,1.65,2.1,3.07,3.74,3.57c1.35,0.41,2.79,0.17,4.15-0.21
	c3.29-0.9,6.37-2.51,9.39-4.2c1.35-0.75,2.73-1.56,3.68-2.85c2.23-3.01,0.27-7.33-2.2-9.35c-1.8-1.48-4.01-2.22-6.2-2.73
	c-5.14-1.2-10.44-1.31-15.7-1.31c-11.06-0.01-21.96,0.81-32.19,5.84c-24.12,11.86-37.6,44.29-37.34,77.51
	c0.09,12.1,1.94,24.46,6.9,34.63c5.83,11.95,16.04,18.17,25.73,24.32c49.54,31.44,129.04-38.24,144.38-15.56
	c-19.3-7.64-36.73,10.74-55.64,27.19c-13.5,11.75-20.96,13.49-36.63,18.95c-26.61,9.27-58.11,6.99-81.25-14.37
	C322.88,177.37,372.57,64.4,439.35,64.4z"/>
<path class="st0" d="M476.97,174.8c-4.64,12.75-14.24,23.24-28.9,23.24c-14.66,0-27.11-11.8-27.11-31.22
	c0-19.54,12.24-33.36,30.8-33.36c18.03,0,27.63,10.37,24.26,25.5h-35.1c0.45,16.9,8.4,24.31,18.54,24.31
	c5.27,0,13.08-2.27,16.88-8.82L476.97,174.8z M440.9,157.4c0,0.12,0,0.24,0,0.35h16.42c1.69-7.4,2.61-23.35-5.55-23.35
	C442.69,134.4,440.9,148.82,440.9,157.4z"/>
<path class="st0" d="M475.25,196.29v-0.83c7.39,0,8.32-2.08,8.32-12.07V130.5c0-6.98-0.42-10.62-9.37-8.64l-0.21-0.83l28.94-6.97
	v69.32c0,9.99,0.94,12.07,8.33,12.07v0.83H475.25z"/>
<path class="st0" d="M562.38,193.4l-6.11,2.11l-0.95-25.07h0.6c2.07,19.8,13.34,24.37,19.54,24.37c5.51,0,11.1-2.11,11.1-8.32
	c0-12.77-31.24-11.37-31.24-34.44c0-14.41,11.45-19.8,22.03-19.8c3.44,0,7.66,0.93,10.76,2.22l5.25-1.99l0.86,20.73h-0.6
	c-2.07-14.64-9.64-20.03-16.27-20.03c-6.11,0-9.47,3.87-9.47,8.32c0,13.35,30.64,9.84,30.64,32.92c0,15-10.84,21.32-23.07,21.32
	C572.19,195.75,567.63,194.93,562.38,193.4z"/>
</svg>
